<mxfile host="Electron" agent="Mozilla/5.0 (Windows NT 10.0; Win64; x64) AppleWebKit/537.36 (KHTML, like Gecko) draw.io/25.0.2 Chrome/128.0.6613.186 Electron/32.2.5 Safari/537.36" version="25.0.2" pages="2">
  <diagram id="C5RBs43oDa-KdzZeNtuy" name="Page-1">
    <mxGraphModel dx="794" dy="519" grid="1" gridSize="10" guides="1" tooltips="1" connect="1" arrows="1" fold="1" page="1" pageScale="1" pageWidth="1169" pageHeight="827" math="0" shadow="0">
      <root>
        <mxCell id="WIyWlLk6GJQsqaUBKTNV-0" />
        <mxCell id="WIyWlLk6GJQsqaUBKTNV-1" parent="WIyWlLk6GJQsqaUBKTNV-0" />
        <object label="Generate" Generate="" id="cfK6qJMH4dwztXXsC_gF-1">
          <mxCell style="swimlane;fontStyle=1;align=center;verticalAlign=top;childLayout=stackLayout;horizontal=1;startSize=34;horizontalStack=0;resizeParent=1;resizeParentMax=0;resizeLast=0;collapsible=1;marginBottom=0;whiteSpace=wrap;html=1;" parent="WIyWlLk6GJQsqaUBKTNV-1" vertex="1">
            <mxGeometry x="40" y="240" width="200" height="158" as="geometry">
              <mxRectangle x="80" y="200" width="90" height="34" as="alternateBounds" />
            </mxGeometry>
          </mxCell>
        </object>
        <mxCell id="cfK6qJMH4dwztXXsC_gF-2" value="- type_task: int" style="text;strokeColor=none;fillColor=none;align=left;verticalAlign=top;spacingLeft=4;spacingRight=4;overflow=hidden;rotatable=0;points=[[0,0.5],[1,0.5]];portConstraint=eastwest;whiteSpace=wrap;html=1;" parent="cfK6qJMH4dwztXXsC_gF-1" vertex="1">
          <mxGeometry y="34" width="200" height="26" as="geometry" />
        </mxCell>
        <mxCell id="cfK6qJMH4dwztXXsC_gF-3" value="" style="line;strokeWidth=1;fillColor=none;align=left;verticalAlign=middle;spacingTop=-1;spacingLeft=3;spacingRight=3;rotatable=0;labelPosition=right;points=[];portConstraint=eastwest;strokeColor=inherit;" parent="cfK6qJMH4dwztXXsC_gF-1" vertex="1">
          <mxGeometry y="60" width="200" height="8" as="geometry" />
        </mxCell>
        <mxCell id="cfK6qJMH4dwztXXsC_gF-4" value="+ get_text_task(int): str" style="text;strokeColor=none;fillColor=none;align=left;verticalAlign=top;spacingLeft=4;spacingRight=4;overflow=hidden;rotatable=0;points=[[0,0.5],[1,0.5]];portConstraint=eastwest;whiteSpace=wrap;html=1;" parent="cfK6qJMH4dwztXXsC_gF-1" vertex="1">
          <mxGeometry y="68" width="200" height="30" as="geometry" />
        </mxCell>
        <mxCell id="cfK6qJMH4dwztXXsC_gF-5" value="+ get_matrix_task(int): list[list[int]]" style="text;strokeColor=none;fillColor=none;align=left;verticalAlign=top;spacingLeft=4;spacingRight=4;overflow=hidden;rotatable=0;points=[[0,0.5],[1,0.5]];portConstraint=eastwest;whiteSpace=wrap;html=1;" parent="cfK6qJMH4dwztXXsC_gF-1" vertex="1">
          <mxGeometry y="98" width="200" height="30" as="geometry" />
        </mxCell>
        <mxCell id="7w0vBSgLa3xnxA-YefWY-2" value="+ get_ans(int): ?" style="text;strokeColor=none;fillColor=none;align=left;verticalAlign=top;spacingLeft=4;spacingRight=4;overflow=hidden;rotatable=0;points=[[0,0.5],[1,0.5]];portConstraint=eastwest;whiteSpace=wrap;html=1;" parent="cfK6qJMH4dwztXXsC_gF-1" vertex="1">
          <mxGeometry y="128" width="200" height="30" as="geometry" />
        </mxCell>
        <object label="Solver" Generate="" id="cfK6qJMH4dwztXXsC_gF-9">
          <mxCell style="swimlane;fontStyle=1;align=center;verticalAlign=top;childLayout=stackLayout;horizontal=1;startSize=30;horizontalStack=0;resizeParent=1;resizeParentMax=0;resizeLast=0;collapsible=1;marginBottom=0;whiteSpace=wrap;html=1;" parent="WIyWlLk6GJQsqaUBKTNV-1" vertex="1">
            <mxGeometry x="520" y="330" width="200" height="154" as="geometry">
              <mxRectangle x="80" y="200" width="90" height="34" as="alternateBounds" />
            </mxGeometry>
          </mxCell>
        </object>
        <mxCell id="cfK6qJMH4dwztXXsC_gF-10" value="- type_task: int" style="text;strokeColor=none;fillColor=none;align=left;verticalAlign=top;spacingLeft=4;spacingRight=4;overflow=hidden;rotatable=0;points=[[0,0.5],[1,0.5]];portConstraint=eastwest;whiteSpace=wrap;html=1;" parent="cfK6qJMH4dwztXXsC_gF-9" vertex="1">
          <mxGeometry y="30" width="200" height="26" as="geometry" />
        </mxCell>
        <mxCell id="7w0vBSgLa3xnxA-YefWY-4" value="- ans: Generate" style="text;strokeColor=none;fillColor=none;align=left;verticalAlign=top;spacingLeft=4;spacingRight=4;overflow=hidden;rotatable=0;points=[[0,0.5],[1,0.5]];portConstraint=eastwest;whiteSpace=wrap;html=1;" parent="cfK6qJMH4dwztXXsC_gF-9" vertex="1">
          <mxGeometry y="56" width="200" height="30" as="geometry" />
        </mxCell>
        <mxCell id="cfK6qJMH4dwztXXsC_gF-11" value="" style="line;strokeWidth=1;fillColor=none;align=left;verticalAlign=middle;spacingTop=-1;spacingLeft=3;spacingRight=3;rotatable=0;labelPosition=right;points=[];portConstraint=eastwest;strokeColor=inherit;" parent="cfK6qJMH4dwztXXsC_gF-9" vertex="1">
          <mxGeometry y="86" width="200" height="8" as="geometry" />
        </mxCell>
        <mxCell id="cfK6qJMH4dwztXXsC_gF-12" value="+ get_solving_task(int): str" style="text;strokeColor=none;fillColor=none;align=left;verticalAlign=top;spacingLeft=4;spacingRight=4;overflow=hidden;rotatable=0;points=[[0,0.5],[1,0.5]];portConstraint=eastwest;whiteSpace=wrap;html=1;" parent="cfK6qJMH4dwztXXsC_gF-9" vertex="1">
          <mxGeometry y="94" width="200" height="30" as="geometry" />
        </mxCell>
        <mxCell id="cfK6qJMH4dwztXXsC_gF-14" value="+ get_ans_task(int): int" style="text;strokeColor=none;fillColor=none;align=left;verticalAlign=top;spacingLeft=4;spacingRight=4;overflow=hidden;rotatable=0;points=[[0,0.5],[1,0.5]];portConstraint=eastwest;whiteSpace=wrap;html=1;" parent="cfK6qJMH4dwztXXsC_gF-9" vertex="1">
          <mxGeometry y="124" width="200" height="30" as="geometry" />
        </mxCell>
        <mxCell id="cfK6qJMH4dwztXXsC_gF-27" value="" style="edgeStyle=none;curved=1;rounded=0;orthogonalLoop=1;jettySize=auto;html=1;fontSize=12;startSize=8;endSize=8;exitX=0;exitY=0.5;exitDx=0;exitDy=0;entryX=1;entryY=0;entryDx=0;entryDy=0;" parent="WIyWlLk6GJQsqaUBKTNV-1" source="cfK6qJMH4dwztXXsC_gF-18" target="cfK6qJMH4dwztXXsC_gF-1" edge="1">
          <mxGeometry relative="1" as="geometry" />
        </mxCell>
        <object label="Controller" Generate="" id="cfK6qJMH4dwztXXsC_gF-15">
          <mxCell style="swimlane;fontStyle=1;align=center;verticalAlign=top;childLayout=stackLayout;horizontal=1;startSize=34;horizontalStack=0;resizeParent=1;resizeParentMax=0;resizeLast=0;collapsible=1;marginBottom=0;whiteSpace=wrap;html=1;" parent="WIyWlLk6GJQsqaUBKTNV-1" vertex="1">
            <mxGeometry x="280" y="50" width="200" height="210" as="geometry">
              <mxRectangle x="80" y="200" width="90" height="34" as="alternateBounds" />
            </mxGeometry>
          </mxCell>
        </object>
        <mxCell id="cfK6qJMH4dwztXXsC_gF-16" value="- tasks1: list[Generate]" style="text;strokeColor=none;fillColor=none;align=left;verticalAlign=top;spacingLeft=4;spacingRight=4;overflow=hidden;rotatable=0;points=[[0,0.5],[1,0.5]];portConstraint=eastwest;whiteSpace=wrap;html=1;" parent="cfK6qJMH4dwztXXsC_gF-15" vertex="1">
          <mxGeometry y="34" width="200" height="26" as="geometry" />
        </mxCell>
        <mxCell id="cfK6qJMH4dwztXXsC_gF-21" value="- tasks4: list[Generate]" style="text;strokeColor=none;fillColor=none;align=left;verticalAlign=top;spacingLeft=4;spacingRight=4;overflow=hidden;rotatable=0;points=[[0,0.5],[1,0.5]];portConstraint=eastwest;whiteSpace=wrap;html=1;" parent="cfK6qJMH4dwztXXsC_gF-15" vertex="1">
          <mxGeometry y="60" width="200" height="26" as="geometry" />
        </mxCell>
        <mxCell id="cfK6qJMH4dwztXXsC_gF-20" value="- tasks9: list[Generate]" style="text;strokeColor=none;fillColor=none;align=left;verticalAlign=top;spacingLeft=4;spacingRight=4;overflow=hidden;rotatable=0;points=[[0,0.5],[1,0.5]];portConstraint=eastwest;whiteSpace=wrap;html=1;" parent="cfK6qJMH4dwztXXsC_gF-15" vertex="1">
          <mxGeometry y="86" width="200" height="26" as="geometry" />
        </mxCell>
        <mxCell id="cfK6qJMH4dwztXXsC_gF-17" value="" style="line;strokeWidth=1;fillColor=none;align=left;verticalAlign=middle;spacingTop=-1;spacingLeft=3;spacingRight=3;rotatable=0;labelPosition=right;points=[];portConstraint=eastwest;strokeColor=inherit;" parent="cfK6qJMH4dwztXXsC_gF-15" vertex="1">
          <mxGeometry y="112" width="200" height="8" as="geometry" />
        </mxCell>
        <mxCell id="cfK6qJMH4dwztXXsC_gF-18" value="+ get_new_task(int): Generate" style="text;strokeColor=none;fillColor=none;align=left;verticalAlign=top;spacingLeft=4;spacingRight=4;overflow=hidden;rotatable=0;points=[[0,0.5],[1,0.5]];portConstraint=eastwest;whiteSpace=wrap;html=1;" parent="cfK6qJMH4dwztXXsC_gF-15" vertex="1">
          <mxGeometry y="120" width="200" height="30" as="geometry" />
        </mxCell>
        <mxCell id="cfK6qJMH4dwztXXsC_gF-19" value="+ get_solving_task(int): Solver" style="text;strokeColor=none;fillColor=none;align=left;verticalAlign=top;spacingLeft=4;spacingRight=4;overflow=hidden;rotatable=0;points=[[0,0.5],[1,0.5]];portConstraint=eastwest;whiteSpace=wrap;html=1;" parent="cfK6qJMH4dwztXXsC_gF-15" vertex="1">
          <mxGeometry y="150" width="200" height="30" as="geometry" />
        </mxCell>
        <mxCell id="cfK6qJMH4dwztXXsC_gF-30" value="+ get_theory(): str" style="text;strokeColor=none;fillColor=none;align=left;verticalAlign=top;spacingLeft=4;spacingRight=4;overflow=hidden;rotatable=0;points=[[0,0.5],[1,0.5]];portConstraint=eastwest;whiteSpace=wrap;html=1;glass=1;" parent="cfK6qJMH4dwztXXsC_gF-15" vertex="1">
          <mxGeometry y="180" width="200" height="30" as="geometry" />
        </mxCell>
        <mxCell id="cfK6qJMH4dwztXXsC_gF-24" style="edgeStyle=none;curved=1;rounded=0;orthogonalLoop=1;jettySize=auto;html=1;exitX=0;exitY=0;exitDx=0;exitDy=0;fontSize=12;startSize=8;endSize=8;" parent="WIyWlLk6GJQsqaUBKTNV-1" source="cfK6qJMH4dwztXXsC_gF-15" target="cfK6qJMH4dwztXXsC_gF-15" edge="1">
          <mxGeometry relative="1" as="geometry" />
        </mxCell>
        <mxCell id="cfK6qJMH4dwztXXsC_gF-25" style="edgeStyle=none;curved=1;rounded=0;orthogonalLoop=1;jettySize=auto;html=1;exitX=0;exitY=0;exitDx=0;exitDy=0;fontSize=12;startSize=8;endSize=8;" parent="WIyWlLk6GJQsqaUBKTNV-1" source="cfK6qJMH4dwztXXsC_gF-15" target="cfK6qJMH4dwztXXsC_gF-15" edge="1">
          <mxGeometry relative="1" as="geometry" />
        </mxCell>
        <mxCell id="cfK6qJMH4dwztXXsC_gF-28" style="edgeStyle=none;curved=1;rounded=0;orthogonalLoop=1;jettySize=auto;html=1;exitX=0.5;exitY=0;exitDx=0;exitDy=0;fontSize=12;startSize=8;endSize=8;" parent="WIyWlLk6GJQsqaUBKTNV-1" source="cfK6qJMH4dwztXXsC_gF-9" target="cfK6qJMH4dwztXXsC_gF-9" edge="1">
          <mxGeometry relative="1" as="geometry" />
        </mxCell>
        <mxCell id="cfK6qJMH4dwztXXsC_gF-29" value="" style="edgeStyle=none;curved=1;rounded=0;orthogonalLoop=1;jettySize=auto;html=1;fontSize=12;startSize=8;endSize=8;exitX=1;exitY=0.5;exitDx=0;exitDy=0;entryX=0;entryY=0;entryDx=0;entryDy=0;" parent="WIyWlLk6GJQsqaUBKTNV-1" source="cfK6qJMH4dwztXXsC_gF-19" target="cfK6qJMH4dwztXXsC_gF-9" edge="1">
          <mxGeometry relative="1" as="geometry" />
        </mxCell>
        <object label="Interface" Generate="" id="cfK6qJMH4dwztXXsC_gF-31">
          <mxCell style="swimlane;fontStyle=1;align=center;verticalAlign=top;childLayout=stackLayout;horizontal=1;startSize=34;horizontalStack=0;resizeParent=1;resizeParentMax=0;resizeLast=0;collapsible=1;marginBottom=0;whiteSpace=wrap;html=1;" parent="WIyWlLk6GJQsqaUBKTNV-1" vertex="1">
            <mxGeometry x="600" y="40" width="200" height="232" as="geometry">
              <mxRectangle x="80" y="200" width="90" height="34" as="alternateBounds" />
            </mxGeometry>
          </mxCell>
        </object>
        <mxCell id="cfK6qJMH4dwztXXsC_gF-32" value="+ click_button_1task(): None" style="text;strokeColor=none;fillColor=none;align=left;verticalAlign=top;spacingLeft=4;spacingRight=4;overflow=hidden;rotatable=0;points=[[0,0.5],[1,0.5]];portConstraint=eastwest;whiteSpace=wrap;html=1;" parent="cfK6qJMH4dwztXXsC_gF-31" vertex="1">
          <mxGeometry y="34" width="200" height="26" as="geometry" />
        </mxCell>
        <mxCell id="cfK6qJMH4dwztXXsC_gF-33" value="+ click_button_4task(): None" style="text;strokeColor=none;fillColor=none;align=left;verticalAlign=top;spacingLeft=4;spacingRight=4;overflow=hidden;rotatable=0;points=[[0,0.5],[1,0.5]];portConstraint=eastwest;whiteSpace=wrap;html=1;" parent="cfK6qJMH4dwztXXsC_gF-31" vertex="1">
          <mxGeometry y="60" width="200" height="26" as="geometry" />
        </mxCell>
        <mxCell id="cfK6qJMH4dwztXXsC_gF-34" value="+ click_button_9task(): None" style="text;strokeColor=none;fillColor=none;align=left;verticalAlign=top;spacingLeft=4;spacingRight=4;overflow=hidden;rotatable=0;points=[[0,0.5],[1,0.5]];portConstraint=eastwest;whiteSpace=wrap;html=1;" parent="cfK6qJMH4dwztXXsC_gF-31" vertex="1">
          <mxGeometry y="86" width="200" height="26" as="geometry" />
        </mxCell>
        <mxCell id="cfK6qJMH4dwztXXsC_gF-36" value="+ click_button_theory(): None" style="text;strokeColor=none;fillColor=none;align=left;verticalAlign=top;spacingLeft=4;spacingRight=4;overflow=hidden;rotatable=0;points=[[0,0.5],[1,0.5]];portConstraint=eastwest;whiteSpace=wrap;html=1;" parent="cfK6qJMH4dwztXXsC_gF-31" vertex="1">
          <mxGeometry y="112" width="200" height="30" as="geometry" />
        </mxCell>
        <mxCell id="cfK6qJMH4dwztXXsC_gF-37" value="+ click_button_answer(): None" style="text;strokeColor=none;fillColor=none;align=left;verticalAlign=top;spacingLeft=4;spacingRight=4;overflow=hidden;rotatable=0;points=[[0,0.5],[1,0.5]];portConstraint=eastwest;whiteSpace=wrap;html=1;" parent="cfK6qJMH4dwztXXsC_gF-31" vertex="1">
          <mxGeometry y="142" width="200" height="30" as="geometry" />
        </mxCell>
        <mxCell id="7w0vBSgLa3xnxA-YefWY-0" value="+ click_button_solving(): None" style="text;strokeColor=none;fillColor=none;align=left;verticalAlign=top;spacingLeft=4;spacingRight=4;overflow=hidden;rotatable=0;points=[[0,0.5],[1,0.5]];portConstraint=eastwest;whiteSpace=wrap;html=1;" parent="cfK6qJMH4dwztXXsC_gF-31" vertex="1">
          <mxGeometry y="172" width="200" height="30" as="geometry" />
        </mxCell>
        <mxCell id="cfK6qJMH4dwztXXsC_gF-38" value="+ show(): None" style="text;strokeColor=none;fillColor=none;align=left;verticalAlign=top;spacingLeft=4;spacingRight=4;overflow=hidden;rotatable=0;points=[[0,0.5],[1,0.5]];portConstraint=eastwest;whiteSpace=wrap;html=1;glass=1;" parent="cfK6qJMH4dwztXXsC_gF-31" vertex="1">
          <mxGeometry y="202" width="200" height="30" as="geometry" />
        </mxCell>
        <mxCell id="cfK6qJMH4dwztXXsC_gF-46" value="" style="edgeStyle=none;curved=1;rounded=0;orthogonalLoop=1;jettySize=auto;html=1;fontSize=12;startSize=8;endSize=8;exitX=0;exitY=0.5;exitDx=0;exitDy=0;entryX=1;entryY=0.5;entryDx=0;entryDy=0;" parent="WIyWlLk6GJQsqaUBKTNV-1" source="cfK6qJMH4dwztXXsC_gF-36" target="cfK6qJMH4dwztXXsC_gF-30" edge="1">
          <mxGeometry relative="1" as="geometry">
            <mxPoint x="490" y="250" as="targetPoint" />
          </mxGeometry>
        </mxCell>
        <mxCell id="cfK6qJMH4dwztXXsC_gF-47" value="" style="edgeStyle=none;curved=1;rounded=0;orthogonalLoop=1;jettySize=auto;html=1;fontSize=12;startSize=8;endSize=8;exitX=0;exitY=0.5;exitDx=0;exitDy=0;entryX=1;entryY=0.5;entryDx=0;entryDy=0;" parent="WIyWlLk6GJQsqaUBKTNV-1" source="cfK6qJMH4dwztXXsC_gF-37" target="cfK6qJMH4dwztXXsC_gF-19" edge="1">
          <mxGeometry relative="1" as="geometry" />
        </mxCell>
        <mxCell id="cfK6qJMH4dwztXXsC_gF-48" value="" style="edgeStyle=none;curved=1;rounded=0;orthogonalLoop=1;jettySize=auto;html=1;fontSize=12;startSize=8;endSize=8;exitX=0;exitY=0.5;exitDx=0;exitDy=0;entryX=1;entryY=0.5;entryDx=0;entryDy=0;" parent="WIyWlLk6GJQsqaUBKTNV-1" source="cfK6qJMH4dwztXXsC_gF-34" target="cfK6qJMH4dwztXXsC_gF-18" edge="1">
          <mxGeometry relative="1" as="geometry" />
        </mxCell>
        <mxCell id="cfK6qJMH4dwztXXsC_gF-49" value="" style="edgeStyle=none;curved=1;rounded=0;orthogonalLoop=1;jettySize=auto;html=1;fontSize=12;startSize=8;endSize=8;exitX=0;exitY=0.5;exitDx=0;exitDy=0;entryX=1;entryY=0.5;entryDx=0;entryDy=0;" parent="WIyWlLk6GJQsqaUBKTNV-1" source="cfK6qJMH4dwztXXsC_gF-33" target="cfK6qJMH4dwztXXsC_gF-18" edge="1">
          <mxGeometry relative="1" as="geometry">
            <mxPoint x="480" y="180" as="targetPoint" />
          </mxGeometry>
        </mxCell>
        <mxCell id="cfK6qJMH4dwztXXsC_gF-50" value="" style="edgeStyle=none;curved=1;rounded=0;orthogonalLoop=1;jettySize=auto;html=1;fontSize=12;startSize=8;endSize=8;exitX=0;exitY=0.5;exitDx=0;exitDy=0;entryX=1;entryY=0.5;entryDx=0;entryDy=0;" parent="WIyWlLk6GJQsqaUBKTNV-1" source="cfK6qJMH4dwztXXsC_gF-32" target="cfK6qJMH4dwztXXsC_gF-18" edge="1">
          <mxGeometry relative="1" as="geometry" />
        </mxCell>
        <mxCell id="7w0vBSgLa3xnxA-YefWY-1" value="" style="edgeStyle=none;curved=1;rounded=0;orthogonalLoop=1;jettySize=auto;html=1;fontSize=12;startSize=8;endSize=8;exitX=0;exitY=0.5;exitDx=0;exitDy=0;entryX=1;entryY=0.5;entryDx=0;entryDy=0;" parent="WIyWlLk6GJQsqaUBKTNV-1" source="7w0vBSgLa3xnxA-YefWY-0" target="cfK6qJMH4dwztXXsC_gF-19" edge="1">
          <mxGeometry relative="1" as="geometry">
            <mxPoint x="610" y="207" as="sourcePoint" />
            <mxPoint x="490" y="225" as="targetPoint" />
          </mxGeometry>
        </mxCell>
        <mxCell id="7w0vBSgLa3xnxA-YefWY-7" value="" style="edgeStyle=none;curved=1;rounded=0;orthogonalLoop=1;jettySize=auto;html=1;fontSize=12;startSize=8;endSize=8;entryX=1;entryY=0.5;entryDx=0;entryDy=0;exitX=0;exitY=0.5;exitDx=0;exitDy=0;" parent="WIyWlLk6GJQsqaUBKTNV-1" source="7w0vBSgLa3xnxA-YefWY-4" target="7w0vBSgLa3xnxA-YefWY-2" edge="1">
          <mxGeometry relative="1" as="geometry">
            <mxPoint x="430" y="350" as="sourcePoint" />
            <mxPoint x="530" y="330" as="targetPoint" />
          </mxGeometry>
        </mxCell>
      </root>
    </mxGraphModel>
  </diagram>
  <diagram name="Копия Page-1" id="kMT-ZXZx-YV1cExAt7cj">
    <mxGraphModel dx="794" dy="519" grid="1" gridSize="10" guides="1" tooltips="1" connect="1" arrows="1" fold="1" page="1" pageScale="1" pageWidth="1169" pageHeight="827" math="0" shadow="0">
      <root>
        <mxCell id="v_76ORyRbpDPB1wRpwKD-0" />
        <mxCell id="v_76ORyRbpDPB1wRpwKD-1" parent="v_76ORyRbpDPB1wRpwKD-0" />
        <object label="Generate_Solver_Task1" Generate="" id="v_76ORyRbpDPB1wRpwKD-2">
          <mxCell style="swimlane;fontStyle=1;align=center;verticalAlign=top;childLayout=stackLayout;horizontal=1;startSize=34;horizontalStack=0;resizeParent=1;resizeParentMax=0;resizeLast=0;collapsible=1;marginBottom=0;whiteSpace=wrap;html=1;" parent="v_76ORyRbpDPB1wRpwKD-1" vertex="1">
            <mxGeometry x="500" y="310" width="200" height="154" as="geometry">
              <mxRectangle x="80" y="200" width="90" height="34" as="alternateBounds" />
            </mxGeometry>
          </mxCell>
        </object>
        <mxCell id="v_76ORyRbpDPB1wRpwKD-5" value="+ get_text_task(int): str" style="text;strokeColor=none;fillColor=none;align=left;verticalAlign=top;spacingLeft=4;spacingRight=4;overflow=hidden;rotatable=0;points=[[0,0.5],[1,0.5]];portConstraint=eastwest;whiteSpace=wrap;html=1;" parent="v_76ORyRbpDPB1wRpwKD-2" vertex="1">
          <mxGeometry y="34" width="200" height="30" as="geometry" />
        </mxCell>
        <mxCell id="v_76ORyRbpDPB1wRpwKD-6" value="+ get_matrix_task(int): list[list[int]]" style="text;strokeColor=none;fillColor=none;align=left;verticalAlign=top;spacingLeft=4;spacingRight=4;overflow=hidden;rotatable=0;points=[[0,0.5],[1,0.5]];portConstraint=eastwest;whiteSpace=wrap;html=1;" parent="v_76ORyRbpDPB1wRpwKD-2" vertex="1">
          <mxGeometry y="64" width="200" height="30" as="geometry" />
        </mxCell>
        <mxCell id="v_76ORyRbpDPB1wRpwKD-7" value="+ get_solving_task(int): str" style="text;strokeColor=none;fillColor=none;align=left;verticalAlign=top;spacingLeft=4;spacingRight=4;overflow=hidden;rotatable=0;points=[[0,0.5],[1,0.5]];portConstraint=eastwest;whiteSpace=wrap;html=1;" parent="v_76ORyRbpDPB1wRpwKD-2" vertex="1">
          <mxGeometry y="94" width="200" height="30" as="geometry" />
        </mxCell>
        <mxCell id="htZCU45fkYincxxiIG-k-0" value="+ get_ans_task(int): int" style="text;strokeColor=none;fillColor=none;align=left;verticalAlign=top;spacingLeft=4;spacingRight=4;overflow=hidden;rotatable=0;points=[[0,0.5],[1,0.5]];portConstraint=eastwest;whiteSpace=wrap;html=1;" parent="v_76ORyRbpDPB1wRpwKD-2" vertex="1">
          <mxGeometry y="124" width="200" height="30" as="geometry" />
        </mxCell>
        <mxCell id="v_76ORyRbpDPB1wRpwKD-14" value="" style="edgeStyle=none;curved=1;rounded=0;orthogonalLoop=1;jettySize=auto;html=1;fontSize=12;startSize=8;endSize=8;exitX=0;exitY=0.5;exitDx=0;exitDy=0;entryX=1;entryY=0;entryDx=0;entryDy=0;" parent="v_76ORyRbpDPB1wRpwKD-1" source="v_76ORyRbpDPB1wRpwKD-20" target="htZCU45fkYincxxiIG-k-1" edge="1">
          <mxGeometry relative="1" as="geometry">
            <mxPoint x="140" y="140" as="targetPoint" />
          </mxGeometry>
        </mxCell>
        <object label="Controller" Generate="" id="v_76ORyRbpDPB1wRpwKD-15">
          <mxCell style="swimlane;fontStyle=1;align=center;verticalAlign=top;childLayout=stackLayout;horizontal=1;startSize=34;horizontalStack=0;resizeParent=1;resizeParentMax=0;resizeLast=0;collapsible=1;marginBottom=0;whiteSpace=wrap;html=1;" parent="v_76ORyRbpDPB1wRpwKD-1" vertex="1">
            <mxGeometry x="280" y="10" width="230" height="180" as="geometry">
              <mxRectangle x="80" y="200" width="90" height="34" as="alternateBounds" />
            </mxGeometry>
          </mxCell>
        </object>
        <mxCell id="v_76ORyRbpDPB1wRpwKD-16" value="- tasks1: list[&lt;span style=&quot;text-align: center;&quot;&gt;Generate_Solver&lt;/span&gt;]" style="text;strokeColor=none;fillColor=none;align=left;verticalAlign=top;spacingLeft=4;spacingRight=4;overflow=hidden;rotatable=0;points=[[0,0.5],[1,0.5]];portConstraint=eastwest;whiteSpace=wrap;html=1;" parent="v_76ORyRbpDPB1wRpwKD-15" vertex="1">
          <mxGeometry y="34" width="230" height="26" as="geometry" />
        </mxCell>
        <mxCell id="v_76ORyRbpDPB1wRpwKD-17" value="- tasks4: list[&lt;span style=&quot;text-align: center;&quot;&gt;Generate_Solver&lt;/span&gt;]" style="text;strokeColor=none;fillColor=none;align=left;verticalAlign=top;spacingLeft=4;spacingRight=4;overflow=hidden;rotatable=0;points=[[0,0.5],[1,0.5]];portConstraint=eastwest;whiteSpace=wrap;html=1;" parent="v_76ORyRbpDPB1wRpwKD-15" vertex="1">
          <mxGeometry y="60" width="230" height="26" as="geometry" />
        </mxCell>
        <mxCell id="v_76ORyRbpDPB1wRpwKD-18" value="- tasks9: list[&lt;span style=&quot;text-align: center;&quot;&gt;Generate_Solver&lt;/span&gt;]" style="text;strokeColor=none;fillColor=none;align=left;verticalAlign=top;spacingLeft=4;spacingRight=4;overflow=hidden;rotatable=0;points=[[0,0.5],[1,0.5]];portConstraint=eastwest;whiteSpace=wrap;html=1;" parent="v_76ORyRbpDPB1wRpwKD-15" vertex="1">
          <mxGeometry y="86" width="230" height="26" as="geometry" />
        </mxCell>
        <mxCell id="v_76ORyRbpDPB1wRpwKD-19" value="" style="line;strokeWidth=1;fillColor=none;align=left;verticalAlign=middle;spacingTop=-1;spacingLeft=3;spacingRight=3;rotatable=0;labelPosition=right;points=[];portConstraint=eastwest;strokeColor=inherit;" parent="v_76ORyRbpDPB1wRpwKD-15" vertex="1">
          <mxGeometry y="112" width="230" height="8" as="geometry" />
        </mxCell>
        <mxCell id="v_76ORyRbpDPB1wRpwKD-20" value="+ get_new_task(int):&amp;nbsp;&lt;span style=&quot;text-align: center;&quot;&gt;Generate_Solver&lt;/span&gt;" style="text;strokeColor=none;fillColor=none;align=left;verticalAlign=top;spacingLeft=4;spacingRight=4;overflow=hidden;rotatable=0;points=[[0,0.5],[1,0.5]];portConstraint=eastwest;whiteSpace=wrap;html=1;" parent="v_76ORyRbpDPB1wRpwKD-15" vertex="1">
          <mxGeometry y="120" width="230" height="30" as="geometry" />
        </mxCell>
        <mxCell id="v_76ORyRbpDPB1wRpwKD-22" value="+ get_theory(): str" style="text;strokeColor=none;fillColor=none;align=left;verticalAlign=top;spacingLeft=4;spacingRight=4;overflow=hidden;rotatable=0;points=[[0,0.5],[1,0.5]];portConstraint=eastwest;whiteSpace=wrap;html=1;glass=1;" parent="v_76ORyRbpDPB1wRpwKD-15" vertex="1">
          <mxGeometry y="150" width="230" height="30" as="geometry" />
        </mxCell>
        <mxCell id="v_76ORyRbpDPB1wRpwKD-23" style="edgeStyle=none;curved=1;rounded=0;orthogonalLoop=1;jettySize=auto;html=1;exitX=0;exitY=0;exitDx=0;exitDy=0;fontSize=12;startSize=8;endSize=8;" parent="v_76ORyRbpDPB1wRpwKD-1" source="v_76ORyRbpDPB1wRpwKD-15" target="v_76ORyRbpDPB1wRpwKD-15" edge="1">
          <mxGeometry relative="1" as="geometry" />
        </mxCell>
        <mxCell id="v_76ORyRbpDPB1wRpwKD-24" style="edgeStyle=none;curved=1;rounded=0;orthogonalLoop=1;jettySize=auto;html=1;exitX=0;exitY=0;exitDx=0;exitDy=0;fontSize=12;startSize=8;endSize=8;" parent="v_76ORyRbpDPB1wRpwKD-1" source="v_76ORyRbpDPB1wRpwKD-15" target="v_76ORyRbpDPB1wRpwKD-15" edge="1">
          <mxGeometry relative="1" as="geometry" />
        </mxCell>
        <mxCell id="v_76ORyRbpDPB1wRpwKD-25" style="edgeStyle=none;curved=1;rounded=0;orthogonalLoop=1;jettySize=auto;html=1;exitX=0.5;exitY=0;exitDx=0;exitDy=0;fontSize=12;startSize=8;endSize=8;" parent="v_76ORyRbpDPB1wRpwKD-1" edge="1">
          <mxGeometry relative="1" as="geometry">
            <mxPoint x="620" y="330" as="sourcePoint" />
            <mxPoint x="620" y="330" as="targetPoint" />
          </mxGeometry>
        </mxCell>
        <object label="Interface" Generate="" id="v_76ORyRbpDPB1wRpwKD-27">
          <mxCell style="swimlane;fontStyle=1;align=center;verticalAlign=top;childLayout=stackLayout;horizontal=1;startSize=34;horizontalStack=0;resizeParent=1;resizeParentMax=0;resizeLast=0;collapsible=1;marginBottom=0;whiteSpace=wrap;html=1;" parent="v_76ORyRbpDPB1wRpwKD-1" vertex="1">
            <mxGeometry x="600" y="40" width="200" height="232" as="geometry">
              <mxRectangle x="80" y="200" width="90" height="34" as="alternateBounds" />
            </mxGeometry>
          </mxCell>
        </object>
        <mxCell id="v_76ORyRbpDPB1wRpwKD-28" value="+ click_button_1task(): None" style="text;strokeColor=none;fillColor=none;align=left;verticalAlign=top;spacingLeft=4;spacingRight=4;overflow=hidden;rotatable=0;points=[[0,0.5],[1,0.5]];portConstraint=eastwest;whiteSpace=wrap;html=1;" parent="v_76ORyRbpDPB1wRpwKD-27" vertex="1">
          <mxGeometry y="34" width="200" height="26" as="geometry" />
        </mxCell>
        <mxCell id="v_76ORyRbpDPB1wRpwKD-29" value="+ click_button_4task(): None" style="text;strokeColor=none;fillColor=none;align=left;verticalAlign=top;spacingLeft=4;spacingRight=4;overflow=hidden;rotatable=0;points=[[0,0.5],[1,0.5]];portConstraint=eastwest;whiteSpace=wrap;html=1;" parent="v_76ORyRbpDPB1wRpwKD-27" vertex="1">
          <mxGeometry y="60" width="200" height="26" as="geometry" />
        </mxCell>
        <mxCell id="v_76ORyRbpDPB1wRpwKD-30" value="+ click_button_9task(): None" style="text;strokeColor=none;fillColor=none;align=left;verticalAlign=top;spacingLeft=4;spacingRight=4;overflow=hidden;rotatable=0;points=[[0,0.5],[1,0.5]];portConstraint=eastwest;whiteSpace=wrap;html=1;" parent="v_76ORyRbpDPB1wRpwKD-27" vertex="1">
          <mxGeometry y="86" width="200" height="26" as="geometry" />
        </mxCell>
        <mxCell id="v_76ORyRbpDPB1wRpwKD-31" value="+ click_button_theory(): None" style="text;strokeColor=none;fillColor=none;align=left;verticalAlign=top;spacingLeft=4;spacingRight=4;overflow=hidden;rotatable=0;points=[[0,0.5],[1,0.5]];portConstraint=eastwest;whiteSpace=wrap;html=1;" parent="v_76ORyRbpDPB1wRpwKD-27" vertex="1">
          <mxGeometry y="112" width="200" height="30" as="geometry" />
        </mxCell>
        <mxCell id="v_76ORyRbpDPB1wRpwKD-32" value="+ click_button_answer(): None" style="text;strokeColor=none;fillColor=none;align=left;verticalAlign=top;spacingLeft=4;spacingRight=4;overflow=hidden;rotatable=0;points=[[0,0.5],[1,0.5]];portConstraint=eastwest;whiteSpace=wrap;html=1;" parent="v_76ORyRbpDPB1wRpwKD-27" vertex="1">
          <mxGeometry y="142" width="200" height="30" as="geometry" />
        </mxCell>
        <mxCell id="v_76ORyRbpDPB1wRpwKD-33" value="+ click_button_solving(): None" style="text;strokeColor=none;fillColor=none;align=left;verticalAlign=top;spacingLeft=4;spacingRight=4;overflow=hidden;rotatable=0;points=[[0,0.5],[1,0.5]];portConstraint=eastwest;whiteSpace=wrap;html=1;" parent="v_76ORyRbpDPB1wRpwKD-27" vertex="1">
          <mxGeometry y="172" width="200" height="30" as="geometry" />
        </mxCell>
        <mxCell id="v_76ORyRbpDPB1wRpwKD-34" value="+ show(): None" style="text;strokeColor=none;fillColor=none;align=left;verticalAlign=top;spacingLeft=4;spacingRight=4;overflow=hidden;rotatable=0;points=[[0,0.5],[1,0.5]];portConstraint=eastwest;whiteSpace=wrap;html=1;glass=1;" parent="v_76ORyRbpDPB1wRpwKD-27" vertex="1">
          <mxGeometry y="202" width="200" height="30" as="geometry" />
        </mxCell>
        <mxCell id="v_76ORyRbpDPB1wRpwKD-35" value="" style="edgeStyle=none;curved=1;rounded=0;orthogonalLoop=1;jettySize=auto;html=1;fontSize=12;startSize=8;endSize=8;exitX=0;exitY=0.5;exitDx=0;exitDy=0;entryX=1;entryY=0.5;entryDx=0;entryDy=0;" parent="v_76ORyRbpDPB1wRpwKD-1" source="v_76ORyRbpDPB1wRpwKD-31" target="v_76ORyRbpDPB1wRpwKD-22" edge="1">
          <mxGeometry relative="1" as="geometry">
            <mxPoint x="490" y="250" as="targetPoint" />
          </mxGeometry>
        </mxCell>
        <mxCell id="v_76ORyRbpDPB1wRpwKD-37" value="" style="edgeStyle=none;curved=1;rounded=0;orthogonalLoop=1;jettySize=auto;html=1;fontSize=12;startSize=8;endSize=8;exitX=0;exitY=0.5;exitDx=0;exitDy=0;entryX=1;entryY=0.5;entryDx=0;entryDy=0;" parent="v_76ORyRbpDPB1wRpwKD-1" source="v_76ORyRbpDPB1wRpwKD-30" target="v_76ORyRbpDPB1wRpwKD-20" edge="1">
          <mxGeometry relative="1" as="geometry" />
        </mxCell>
        <mxCell id="v_76ORyRbpDPB1wRpwKD-38" value="" style="edgeStyle=none;curved=1;rounded=0;orthogonalLoop=1;jettySize=auto;html=1;fontSize=12;startSize=8;endSize=8;exitX=0;exitY=0.5;exitDx=0;exitDy=0;entryX=1;entryY=0.5;entryDx=0;entryDy=0;" parent="v_76ORyRbpDPB1wRpwKD-1" source="v_76ORyRbpDPB1wRpwKD-29" target="v_76ORyRbpDPB1wRpwKD-20" edge="1">
          <mxGeometry relative="1" as="geometry">
            <mxPoint x="480" y="180" as="targetPoint" />
          </mxGeometry>
        </mxCell>
        <mxCell id="v_76ORyRbpDPB1wRpwKD-39" value="" style="edgeStyle=none;curved=1;rounded=0;orthogonalLoop=1;jettySize=auto;html=1;fontSize=12;startSize=8;endSize=8;exitX=0;exitY=0.5;exitDx=0;exitDy=0;entryX=1;entryY=0.5;entryDx=0;entryDy=0;" parent="v_76ORyRbpDPB1wRpwKD-1" source="v_76ORyRbpDPB1wRpwKD-28" target="v_76ORyRbpDPB1wRpwKD-20" edge="1">
          <mxGeometry relative="1" as="geometry" />
        </mxCell>
        <object label="Task" Generate="" id="htZCU45fkYincxxiIG-k-1">
          <mxCell style="swimlane;fontStyle=1;align=center;verticalAlign=top;childLayout=stackLayout;horizontal=1;startSize=34;horizontalStack=0;resizeParent=1;resizeParentMax=0;resizeLast=0;collapsible=1;marginBottom=0;whiteSpace=wrap;html=1;" parent="v_76ORyRbpDPB1wRpwKD-1" vertex="1">
            <mxGeometry x="20" y="252" width="200" height="124" as="geometry">
              <mxRectangle x="80" y="200" width="90" height="34" as="alternateBounds" />
            </mxGeometry>
          </mxCell>
        </object>
        <mxCell id="htZCU45fkYincxxiIG-k-2" value="+ task1:&amp;nbsp;&lt;span style=&quot;text-align: center;&quot;&gt;Generate_Solver&lt;/span&gt;" style="text;strokeColor=none;fillColor=none;align=left;verticalAlign=top;spacingLeft=4;spacingRight=4;overflow=hidden;rotatable=0;points=[[0,0.5],[1,0.5]];portConstraint=eastwest;whiteSpace=wrap;html=1;" parent="htZCU45fkYincxxiIG-k-1" vertex="1">
          <mxGeometry y="34" width="200" height="30" as="geometry" />
        </mxCell>
        <mxCell id="htZCU45fkYincxxiIG-k-3" value="+ task4:&amp;nbsp;&lt;span style=&quot;text-align: center;&quot;&gt;Generate_Solver&lt;/span&gt;" style="text;strokeColor=none;fillColor=none;align=left;verticalAlign=top;spacingLeft=4;spacingRight=4;overflow=hidden;rotatable=0;points=[[0,0.5],[1,0.5]];portConstraint=eastwest;whiteSpace=wrap;html=1;" parent="htZCU45fkYincxxiIG-k-1" vertex="1">
          <mxGeometry y="64" width="200" height="30" as="geometry" />
        </mxCell>
        <mxCell id="htZCU45fkYincxxiIG-k-4" value="+ task9:&amp;nbsp;&lt;span style=&quot;text-align: center;&quot;&gt;Generate_Solver&lt;/span&gt;" style="text;strokeColor=none;fillColor=none;align=left;verticalAlign=top;spacingLeft=4;spacingRight=4;overflow=hidden;rotatable=0;points=[[0,0.5],[1,0.5]];portConstraint=eastwest;whiteSpace=wrap;html=1;" parent="htZCU45fkYincxxiIG-k-1" vertex="1">
          <mxGeometry y="94" width="200" height="30" as="geometry" />
        </mxCell>
        <mxCell id="htZCU45fkYincxxiIG-k-7" value="" style="edgeStyle=none;curved=1;rounded=0;orthogonalLoop=1;jettySize=auto;html=1;fontSize=12;startSize=8;endSize=8;exitX=1;exitY=0.5;exitDx=0;exitDy=0;entryX=0;entryY=0;entryDx=0;entryDy=0;" parent="v_76ORyRbpDPB1wRpwKD-1" source="htZCU45fkYincxxiIG-k-2" target="v_76ORyRbpDPB1wRpwKD-2" edge="1">
          <mxGeometry relative="1" as="geometry">
            <mxPoint x="300" y="205" as="sourcePoint" />
            <mxPoint x="470" y="300" as="targetPoint" />
          </mxGeometry>
        </mxCell>
        <mxCell id="htZCU45fkYincxxiIG-k-8" value="" style="edgeStyle=none;curved=1;rounded=0;orthogonalLoop=1;jettySize=auto;html=1;fontSize=12;startSize=8;endSize=8;exitX=1;exitY=0.5;exitDx=0;exitDy=0;entryX=0.5;entryY=0;entryDx=0;entryDy=0;" parent="v_76ORyRbpDPB1wRpwKD-1" source="htZCU45fkYincxxiIG-k-3" target="htZCU45fkYincxxiIG-k-17" edge="1">
          <mxGeometry relative="1" as="geometry">
            <mxPoint x="250" y="259" as="sourcePoint" />
            <mxPoint x="470" y="320" as="targetPoint" />
          </mxGeometry>
        </mxCell>
        <mxCell id="htZCU45fkYincxxiIG-k-9" value="" style="edgeStyle=none;curved=1;rounded=0;orthogonalLoop=1;jettySize=auto;html=1;fontSize=12;startSize=8;endSize=8;exitX=1;exitY=0.5;exitDx=0;exitDy=0;entryX=1;entryY=0;entryDx=0;entryDy=0;" parent="v_76ORyRbpDPB1wRpwKD-1" source="htZCU45fkYincxxiIG-k-4" target="htZCU45fkYincxxiIG-k-12" edge="1">
          <mxGeometry relative="1" as="geometry">
            <mxPoint x="260" y="269" as="sourcePoint" />
            <mxPoint x="320" y="390" as="targetPoint" />
          </mxGeometry>
        </mxCell>
        <object label="Generate_Solver_Task9" Generate="" id="htZCU45fkYincxxiIG-k-12">
          <mxCell style="swimlane;fontStyle=1;align=center;verticalAlign=top;childLayout=stackLayout;horizontal=1;startSize=34;horizontalStack=0;resizeParent=1;resizeParentMax=0;resizeLast=0;collapsible=1;marginBottom=0;whiteSpace=wrap;html=1;" parent="v_76ORyRbpDPB1wRpwKD-1" vertex="1">
            <mxGeometry x="20" y="400" width="200" height="184" as="geometry">
              <mxRectangle x="80" y="200" width="90" height="34" as="alternateBounds" />
            </mxGeometry>
          </mxCell>
        </object>
        <mxCell id="rLhjCJvILxUtzPWqKdLw-0" value="+ get_task(): Generate_Solver" style="text;strokeColor=none;fillColor=none;align=left;verticalAlign=top;spacingLeft=4;spacingRight=4;overflow=hidden;rotatable=0;points=[[0,0.5],[1,0.5]];portConstraint=eastwest;whiteSpace=wrap;html=1;" vertex="1" parent="htZCU45fkYincxxiIG-k-12">
          <mxGeometry y="34" width="200" height="30" as="geometry" />
        </mxCell>
        <mxCell id="htZCU45fkYincxxiIG-k-13" value="+ get_text_task(int): str" style="text;strokeColor=none;fillColor=none;align=left;verticalAlign=top;spacingLeft=4;spacingRight=4;overflow=hidden;rotatable=0;points=[[0,0.5],[1,0.5]];portConstraint=eastwest;whiteSpace=wrap;html=1;" parent="htZCU45fkYincxxiIG-k-12" vertex="1">
          <mxGeometry y="64" width="200" height="30" as="geometry" />
        </mxCell>
        <mxCell id="htZCU45fkYincxxiIG-k-14" value="+ get_matrix_task(int): list[list[int]]" style="text;strokeColor=none;fillColor=none;align=left;verticalAlign=top;spacingLeft=4;spacingRight=4;overflow=hidden;rotatable=0;points=[[0,0.5],[1,0.5]];portConstraint=eastwest;whiteSpace=wrap;html=1;" parent="htZCU45fkYincxxiIG-k-12" vertex="1">
          <mxGeometry y="94" width="200" height="30" as="geometry" />
        </mxCell>
        <mxCell id="htZCU45fkYincxxiIG-k-15" value="+ get_solving_task(int): str" style="text;strokeColor=none;fillColor=none;align=left;verticalAlign=top;spacingLeft=4;spacingRight=4;overflow=hidden;rotatable=0;points=[[0,0.5],[1,0.5]];portConstraint=eastwest;whiteSpace=wrap;html=1;" parent="htZCU45fkYincxxiIG-k-12" vertex="1">
          <mxGeometry y="124" width="200" height="30" as="geometry" />
        </mxCell>
        <mxCell id="htZCU45fkYincxxiIG-k-16" value="+ get_ans_task(int): int" style="text;strokeColor=none;fillColor=none;align=left;verticalAlign=top;spacingLeft=4;spacingRight=4;overflow=hidden;rotatable=0;points=[[0,0.5],[1,0.5]];portConstraint=eastwest;whiteSpace=wrap;html=1;" parent="htZCU45fkYincxxiIG-k-12" vertex="1">
          <mxGeometry y="154" width="200" height="30" as="geometry" />
        </mxCell>
        <object label="Generate_Solver_Task4" Generate="" id="htZCU45fkYincxxiIG-k-17">
          <mxCell style="swimlane;fontStyle=1;align=center;verticalAlign=top;childLayout=stackLayout;horizontal=1;startSize=34;horizontalStack=0;resizeParent=1;resizeParentMax=0;resizeLast=0;collapsible=1;marginBottom=0;whiteSpace=wrap;html=1;" parent="v_76ORyRbpDPB1wRpwKD-1" vertex="1">
            <mxGeometry x="250" y="360" width="200" height="154" as="geometry">
              <mxRectangle x="80" y="200" width="90" height="34" as="alternateBounds" />
            </mxGeometry>
          </mxCell>
        </object>
        <mxCell id="htZCU45fkYincxxiIG-k-18" value="+ get_text_task(int): str" style="text;strokeColor=none;fillColor=none;align=left;verticalAlign=top;spacingLeft=4;spacingRight=4;overflow=hidden;rotatable=0;points=[[0,0.5],[1,0.5]];portConstraint=eastwest;whiteSpace=wrap;html=1;" parent="htZCU45fkYincxxiIG-k-17" vertex="1">
          <mxGeometry y="34" width="200" height="30" as="geometry" />
        </mxCell>
        <mxCell id="htZCU45fkYincxxiIG-k-19" value="+ get_matrix_task(int): list[list[int]]" style="text;strokeColor=none;fillColor=none;align=left;verticalAlign=top;spacingLeft=4;spacingRight=4;overflow=hidden;rotatable=0;points=[[0,0.5],[1,0.5]];portConstraint=eastwest;whiteSpace=wrap;html=1;" parent="htZCU45fkYincxxiIG-k-17" vertex="1">
          <mxGeometry y="64" width="200" height="30" as="geometry" />
        </mxCell>
        <mxCell id="htZCU45fkYincxxiIG-k-20" value="+ get_solving_task(int): str" style="text;strokeColor=none;fillColor=none;align=left;verticalAlign=top;spacingLeft=4;spacingRight=4;overflow=hidden;rotatable=0;points=[[0,0.5],[1,0.5]];portConstraint=eastwest;whiteSpace=wrap;html=1;" parent="htZCU45fkYincxxiIG-k-17" vertex="1">
          <mxGeometry y="94" width="200" height="30" as="geometry" />
        </mxCell>
        <mxCell id="htZCU45fkYincxxiIG-k-21" value="+ get_ans_task(int): int" style="text;strokeColor=none;fillColor=none;align=left;verticalAlign=top;spacingLeft=4;spacingRight=4;overflow=hidden;rotatable=0;points=[[0,0.5],[1,0.5]];portConstraint=eastwest;whiteSpace=wrap;html=1;" parent="htZCU45fkYincxxiIG-k-17" vertex="1">
          <mxGeometry y="124" width="200" height="30" as="geometry" />
        </mxCell>
        <object label="Generate_Solver" Generate="" id="htZCU45fkYincxxiIG-k-22">
          <mxCell style="swimlane;fontStyle=1;align=center;verticalAlign=top;childLayout=stackLayout;horizontal=1;startSize=34;horizontalStack=0;resizeParent=1;resizeParentMax=0;resizeLast=0;collapsible=1;marginBottom=0;whiteSpace=wrap;html=1;" parent="v_76ORyRbpDPB1wRpwKD-1" vertex="1">
            <mxGeometry x="240" y="560" width="240" height="154" as="geometry">
              <mxRectangle x="80" y="200" width="90" height="34" as="alternateBounds" />
            </mxGeometry>
          </mxCell>
        </object>
        <mxCell id="htZCU45fkYincxxiIG-k-23" value="+ get_text_task(int): str" style="text;strokeColor=none;fillColor=none;align=left;verticalAlign=top;spacingLeft=4;spacingRight=4;overflow=hidden;rotatable=0;points=[[0,0.5],[1,0.5]];portConstraint=eastwest;whiteSpace=wrap;html=1;" parent="htZCU45fkYincxxiIG-k-22" vertex="1">
          <mxGeometry y="34" width="240" height="30" as="geometry" />
        </mxCell>
        <mxCell id="htZCU45fkYincxxiIG-k-24" value="+ get_matrix_task(int): list[list[int]]" style="text;strokeColor=none;fillColor=none;align=left;verticalAlign=top;spacingLeft=4;spacingRight=4;overflow=hidden;rotatable=0;points=[[0,0.5],[1,0.5]];portConstraint=eastwest;whiteSpace=wrap;html=1;" parent="htZCU45fkYincxxiIG-k-22" vertex="1">
          <mxGeometry y="64" width="240" height="30" as="geometry" />
        </mxCell>
        <mxCell id="htZCU45fkYincxxiIG-k-25" value="+ get_solving_task(int): str" style="text;strokeColor=none;fillColor=none;align=left;verticalAlign=top;spacingLeft=4;spacingRight=4;overflow=hidden;rotatable=0;points=[[0,0.5],[1,0.5]];portConstraint=eastwest;whiteSpace=wrap;html=1;" parent="htZCU45fkYincxxiIG-k-22" vertex="1">
          <mxGeometry y="94" width="240" height="30" as="geometry" />
        </mxCell>
        <mxCell id="htZCU45fkYincxxiIG-k-26" value="+ get_ans_task(int): int" style="text;strokeColor=none;fillColor=none;align=left;verticalAlign=top;spacingLeft=4;spacingRight=4;overflow=hidden;rotatable=0;points=[[0,0.5],[1,0.5]];portConstraint=eastwest;whiteSpace=wrap;html=1;" parent="htZCU45fkYincxxiIG-k-22" vertex="1">
          <mxGeometry y="124" width="240" height="30" as="geometry" />
        </mxCell>
        <mxCell id="htZCU45fkYincxxiIG-k-27" value="" style="endArrow=classic;html=1;rounded=0;entryX=0;entryY=0;entryDx=0;entryDy=0;exitX=1;exitY=0;exitDx=0;exitDy=0;dashed=1;" parent="v_76ORyRbpDPB1wRpwKD-1" source="htZCU45fkYincxxiIG-k-22" target="v_76ORyRbpDPB1wRpwKD-2" edge="1">
          <mxGeometry width="50" height="50" relative="1" as="geometry">
            <mxPoint x="380" y="440" as="sourcePoint" />
            <mxPoint x="430" y="390" as="targetPoint" />
          </mxGeometry>
        </mxCell>
        <mxCell id="htZCU45fkYincxxiIG-k-28" value="" style="endArrow=classic;html=1;rounded=0;entryX=1;entryY=0;entryDx=0;entryDy=0;exitX=0;exitY=0;exitDx=0;exitDy=0;dashed=1;" parent="v_76ORyRbpDPB1wRpwKD-1" source="htZCU45fkYincxxiIG-k-22" target="htZCU45fkYincxxiIG-k-12" edge="1">
          <mxGeometry width="50" height="50" relative="1" as="geometry">
            <mxPoint x="470" y="580" as="sourcePoint" />
            <mxPoint x="510" y="320" as="targetPoint" />
          </mxGeometry>
        </mxCell>
        <mxCell id="htZCU45fkYincxxiIG-k-29" value="" style="endArrow=classic;html=1;rounded=0;entryX=1;entryY=0;entryDx=0;entryDy=0;exitX=1;exitY=0;exitDx=0;exitDy=0;dashed=1;" parent="v_76ORyRbpDPB1wRpwKD-1" source="htZCU45fkYincxxiIG-k-22" target="htZCU45fkYincxxiIG-k-17" edge="1">
          <mxGeometry width="50" height="50" relative="1" as="geometry">
            <mxPoint x="480" y="590" as="sourcePoint" />
            <mxPoint x="520" y="330" as="targetPoint" />
          </mxGeometry>
        </mxCell>
      </root>
    </mxGraphModel>
  </diagram>
</mxfile>
